# xmcd
#
# Track frame offsets: 
#        150
#        3550
#        29091
#        52402
#        68246
#        95537
#        110117
#        126295
#        152138
#        165689
#        189678
#
# Disc length: 2757 seconds
#
# Revision: 0
# Processed by: cddbd v1.5.2PL0 Copyright (c) Steve Scherf et al.
# Submitted via: ExactAudioCopy v1.0b3
#
DISCID=a50ac30b
DTITLE=Nikollë Nikprelaj - Këngë e Atmosfer
DYEAR=2014
DGENRE=Live
TTITLE0=Prezentimi i Albumit
TTITLE1=Potpuria e dyte
TTITLE2=Hajde shote marshalla
TTITLE3=Luj cycek
TTITLE4=Potpuria e pare
TTITLE5=Kanga e facebook
TTITLE6=Jam Shqiptar jam Malesor
TTITLE7=Potpuria e trete turbo
TTITLE8=Me nafak
TTITLE9=Qorr Iljazi
TTITLE10=Moj Kosove mriz me zana
EXTD=
EXTT0=
EXTT1=
EXTT2=
EXTT3=
EXTT4=
EXTT5=
EXTT6=
EXTT7=
EXTT8=
EXTT9=
EXTT10=
PLAYORDER=
